<svg id="Layer_1" data-name="Layer 1" xmlns="http://www.w3.org/2000/svg" viewBox="0 0 1000 1000"><defs><style>.cls-1{opacity:0.15;}.cls-2{fill:#f2f2f2;}.cls-3{font-size:611.21px;fill:#fff;font-family:Algerian;}.cls-4{font-family:GothicE;}</style></defs><rect width="1000" height="1000" rx="500"/><g class="cls-1"><path class="cls-2" d="M934.82,592.41l-12.72-2.69-2.91,12.58c-.5,2.09-.93,4.2-1.49,6.28l-1.76,6.21-25.07-6.9-3.3,11.67-12.43-3.83,3.2-11.29L865.81,601l-3.09,10.91-12.43-3.83a400.52,400.52,0,0,0,12.13-53.37l1.72-13.6.44-3.39.26-3.43.51-6.84.54-6.84.13-1.71,0-1.72.08-3.43L866.5,500h13l-.3,11.37-.14,5.69c0,1,0,1.9-.08,2.84l-.22,2.84-.87,11.33c-.16,1.88-.23,3.78-.46,5.66l-.73,5.63,25.82,3.07-1.53,12c-.11,1-.28,2-.47,3l-.53,3-1.07,6,12.79,2.31,1.1-6.16.56-3.09c.19-1,.37-2.05.48-3.09L915.43,550,941.24,553l.84-6.59c.27-2.2.37-4.42.56-6.63l-51.8-4.6.89-11.72.23-2.93c.06-1,.06-2,.09-2.94l.14-5.87L892.5,500h91l-.44,18-.12,4.51-.07,2.26-.16,2.25-.67,9-.7,9-.36,4.5-.56,4.48L978.13,572a516.09,516.09,0,0,1-16,70.52l-12.43-3.82,3.86-13.55-25.07-6.91,1.82-6.4c.57-2.14,1-4.31,1.54-6.47ZM909.38,587l-12.72-2.69-12.72-2.69c.21-1,.46-1.9.65-2.87l.51-2.89,1-5.78,1-5.77.52-2.89c.18-1,.35-1.93.45-2.9l-12.85-1.92c-.14,1.41-.46,2.8-.69,4.2l-.76,4.18-1.49,8.39c-.43,2.8-1.12,5.56-1.76,8.32L868.67,590l12.63,3.07,12.63,3.07,12.63,3.08Zm15.13-10,12.79,2.3,12.79,2.31-1.2,6.74-.61,3.37c-.22,1.12-.5,2.22-.75,3.34l-3.07,13.34,12.63,3.08a471.81,471.81,0,0,0,13.07-97.47l-65-1.91-.15,6.07c0,1,0,2-.1,3l-.23,3,51.91,3.06-1,13.64c-.2,2.27-.31,4.55-.58,6.82l-.86,6.79-1.73,13.58-12.86-1.92-12.85-1.93c-.12,1.07-.3,2.13-.5,3.19l-.57,3.18Z"/><path class="cls-2" d="M888.21,716.47l-11.35-6.34-6.43,11.19c-.55.93-1.06,1.87-1.63,2.79l-1.74,2.71-3.48,5.44-21.9-14-3.27,5.11c-1.1,1.7-2.15,3.43-3.36,5l-10.74-7.33c1.18-1.57,2.19-3.25,3.25-4.89l3.17-4.95-11-7L816.72,709c-1,1.59-2,3.21-3.14,4.73l-10.73-7.34A404,404,0,0,0,830.31,659a406.82,406.82,0,0,0,20-50.95l12.43,3.83c-1.12,3.61-2.41,7.17-3.6,10.76L857.31,628c-.31.9-.59,1.8-.92,2.69l-1,2.63c-2.85,7-5.37,14.15-8.66,21l23.75,10.59-5,11.05-5.54,10.8,11.53,6,5.71-11.14,5.17-11.4,23.75,10.58c1.81-4,3.71-8,5.26-12.21l-48.11-19.74,4.31-10.92,1.08-2.72c.33-.92.63-1.86.95-2.78l1.87-5.56c1.23-3.71,2.57-7.39,3.72-11.13l74.54,23,12.43,3.82a522.91,522.91,0,0,1-26.42,67.33,520.1,520.1,0,0,1-36.23,62.55l-10.74-7.34c1.4-1.88,2.62-3.88,3.9-5.85l3.8-5.93-21.89-14,3.58-5.6,1.79-2.8c.59-.94,1.12-1.92,1.68-2.87Zm-22.7-12.69-11.34-6.34-11.35-6.34,1.46-2.54c.5-.85,1-1.69,1.42-2.57l2.67-5.23,5.36-10.45L842,664.66l-7.77,15.16c-.61,1.28-1.38,2.47-2.07,3.71l-2.13,3.69-4.24,7.39L837,701.28,848.12,708l11.15,6.68Zm17.46-5,11.53,6,11.54,6-3.13,6.09c-.51,1-1.07,2-1.65,3l-1.7,3-6.83,11.86,11.16,6.68a470.67,470.67,0,0,0,41.35-89.29l-61.52-21-1.94,5.74c-.33,1-.63,1.92-1,2.87l-1.11,2.82,48.68,18.28-5,12.74c-1.6,4.28-3.55,8.41-5.42,12.58l-5.66,12.47-11.71-5.65-11.71-5.65Z"/><path class="cls-2" d="M807.1,821.19l-9-9.39-4.67,4.45c-1.57,1.47-3.08,3-4.74,4.39L779,829.09l-16.82-19.82c-1.54,1.31-3,2.67-4.6,4L752.75,817l-8.11-10.16,4.62-3.62c1.51-1.25,3-2.56,4.46-3.84l-8.41-9.91c-1.44,1.23-2.85,2.51-4.31,3.71l-4.47,3.5-8.11-10.16c1.78-1.42,3.63-2.77,5.37-4.26l5.18-4.5,5.19-4.49c.86-.75,1.75-1.47,2.58-2.25l2.48-2.38,9.93-9.46,9.46-9.93,2.38-2.48c.78-.83,1.5-1.72,2.25-2.58l4.49-5.19,4.5-5.18c1.49-1.74,2.84-3.59,4.26-5.37l4.24-5.39c1.4-1.81,2.9-3.55,4.17-5.45l8-11.18,10.73,7.34L807,723c-1.11,1.53-2.15,3.11-3.31,4.61l-3.52,4.46-7,8.94c-2.45,2.89-5,5.73-7.43,8.6l19.57,17.11c-2.65,3-5.23,6.17-8.09,9l-8.38,8.78,9.26,9.13,8.65-9.07c2.94-3,5.61-6.17,8.35-9.32l19.57,17.11c2.9-3.35,5.83-6.68,8.69-10.07l-40.15-33,7.25-9.24,3.64-4.61c1.19-1.55,2.28-3.18,3.42-4.77l6.81-9.57,64.41,44,10.74,7.34L889,787.13c-1.7,2.49-3.64,4.8-5.47,7.19l-5.59,7.1c-1.88,2.36-3.69,4.77-5.63,7.06l-5.91,6.84-5.92,6.83c-1,1.13-2,2.29-3,3.39l-3.11,3.28-12.47,13.07-13.07,12.47-3.28,3.11c-1.1,1-2.26,2-3.39,3l-6.83,5.92-6.84,5.91c-2.29,1.94-4.7,3.75-7.06,5.63l-8.11-10.16,5.53-4.35c1.81-1.49,3.56-3,5.34-4.58L787.36,839l10-8.71c1.7-1.42,3.25-3,4.87-4.52Zm-18-18.79-9-9.39-9-9.4,4.26-4.05,2.13-2,2-2.13,8.11-8.51-9.53-8.84-5.88,6.17c-2,2-3.87,4.16-6,6.07l-6.18,5.88L757,779.12c-1,1-2,2-3.13,2.89l8.7,9.66,8.7,9.65L780,811c1.61-1.33,3.07-2.83,4.59-4.25Zm18.22.38,9.26,9.13,9.27,9.12-2.37,2.47L821,825.87l-4.95,4.72-5,4.72c-1.67,1.55-3.27,3.19-5,4.65l8.7,9.65c1.58-1.31,3-2.76,4.52-4.17l4.46-4.24,8.9-8.51,8.51-8.9,4.24-4.46c1.41-1.49,2.86-2.94,4.17-4.52l8.07-9.3c2.67-3.12,5.43-6.16,7.91-9.43l7.61-9.68,3.79-4.85,3.58-5L828,738.29c-1.19,1.64-2.32,3.32-3.55,4.92L820.72,748l41.11,31.84-8.46,10.76c-2.94,3.48-6,6.91-8.93,10.36s-5.92,6.94-9.13,10.19l-9.53-8.85-9.53-8.84Z"/><path class="cls-2" d="M698.83,897.53,693,885.91l-5.75,2.94-5.88,2.67-11.76,5.32-10.23-23.9c-1.83.88-3.74,1.53-5.61,2.3l-5.65,2.22-4.75-12.1,5.46-2.15c1.81-.74,3.67-1.37,5.43-2.22l-5.11-12c-1.71.83-3.5,1.44-5.25,2.15l-5.28,2.08-4.75-12.1C642.45,838,650.67,834,659,830.31l12.18-6.26,3.06-1.55c1-.53,2-1.13,3-1.69l5.94-3.43,6-3.4c2-1.14,3.85-2.45,5.79-3.67l5.77-3.7,2.89-1.84c.48-.31,1-.6,1.44-.93l1.39-1,11.18-8c1.9-1.27,3.64-2.77,5.45-4.17l5.39-4.24,8.11,10.16-8.93,7c-3,2.25-6.17,4.39-9.24,6.6-6.07,4.54-12.57,8.44-18.91,12.57L713.14,845l-2.56,1.64c-.85.54-1.75,1-2.62,1.53l-5.26,3-5.26,3-2.62,1.51c-.88.51-1.75,1-2.66,1.46l6.17,11.44c.94-.46,1.84-1,2.74-1.5l2.71-1.57,5.43-3.12,5.43-3.12c.9-.52,1.82-1,2.7-1.57L720,856l13.69,22.1,11.19-7.18-28.68-43.37c3.35-2,6.47-4.4,9.67-6.65s6.41-4.51,9.56-6.83l9.23-7.27,48.67,61,8.11,10.16-7.1,5.59c-2.39,1.83-4.7,3.77-7.19,5.47L772.4,899.46l-1.85,1.3c-.62.43-1.26.82-1.89,1.24l-3.8,2.44-7.61,4.88c-2.56,1.6-5,3.3-7.65,4.82l-7.84,4.52-7.84,4.5c-1.31.74-2.6,1.52-3.94,2.22l-4,2.07-16.11,8.24c-11,5-21.89,10.15-33.2,14.37L671.9,938l6.55-2.59c2.17-.89,4.39-1.67,6.51-2.67l-10.23-23.91,12.12-5.48,6.06-2.75Zm-11.65-23.24-5.82-11.62L675.53,851,686,845.7c.88-.43,1.72-.92,2.57-1.42l2.54-1.46,5.09-2.93-6.51-11.25-7.38,4.25c-1.21.74-2.48,1.37-3.75,2l-3.79,1.93c-5.07,2.55-10,5.32-15.27,7.52l5.48,11.8,5.47,11.79,5.47,11.79,5.7-2.59ZM704.5,880l6.17,11.45,6.17,11.44-12.19,6.25-6.09,3.11-6.23,2.84,5.47,11.79a468.74,468.74,0,0,0,84.44-50.45l-39-52c-3.25,2.4-6.58,4.7-9.87,7.06l30,42.5c-3.73,2.62-7.38,5.36-11.27,7.75l-11.53,7.38L737.63,891c-1,.6-2,1.15-3,1.72l-5.93,3.42-6.51-11.25-6.51-11.25-5.59,3.21-2.8,1.61C706.4,879,705.46,879.55,704.5,880Z"/><path class="cls-2" d="M572.79,938.47l-2.11-12.83-3.18.57c-1.06.2-2.12.38-3.19.5l-6.4.81-12.81,1.63-2.68-25.86c-4,.4-8.07.63-12.1,1l-1-13c3.9-.32,7.82-.54,11.71-.92l-1.34-12.93c-3.77.37-7.55.58-11.33.89l-1-13,6.84-.51,3.43-.26,3.39-.44,13.6-1.72c1.14-.11,2.26-.35,3.39-.55l3.37-.61,6.74-1.2c2.24-.42,4.51-.73,6.73-1.24l6.67-1.56,6.67-1.53,3.34-.76,3.29-.94,13.17-3.74c4.35-1.37,8.65-2.92,13-4.35l3.25-1.09,1.62-.54,1.59-.63,6.37-2.52,4.75,12.1c-14,5.72-28.53,10-43.1,14.11l6.53,25.17c-3.93,1-7.88,1.83-11.81,2.75l-5.91,1.37c-1,.22-2,.48-3,.67l-3,.53,2.5,12.75,3.08-.55c1-.19,2-.46,3.06-.68l6.1-1.41c4.06-1,8.14-1.84,12.19-2.85l6.52,25.17,12.8-3.63-14.56-49.92,5.65-1.6c1.88-.52,3.71-1.23,5.57-1.84l11.12-3.75c.92-.32,1.86-.62,2.78-.95l2.72-1.08,5.46-2.16L671.9,938l4.75,12.1-8.42,3.31-2.11.82-2.14.73-4.29,1.46c-5.72,1.91-11.41,3.92-17.17,5.73l-17.41,4.95-4.35,1.22-4.41,1-8.82,2-8.82,2c-2.94.66-5.92,1.11-8.89,1.67l-8.9,1.59-4.45.79c-1.49.26-3,.55-4.47.71l-17.94,2.29-4.48.56-4.5.36-9,.7-1-13c4.67-.38,9.36-.67,14-1.13l-2.68-25.86,13.19-1.67,6.6-.85c1.1-.12,2.19-.31,3.28-.51Zm-4.22-25.66L566.45,900l-2.11-12.83,11.55-2.06,2.89-.51c1-.19,1.91-.44,2.87-.65l5.71-1.32-2.88-12.68-8.29,1.91-8.38,1.48-8.38,1.51c-1.39.28-2.8.44-4.21.61L551,876l1.73,12.89,1.73,12.88,1.73,12.89,6.21-.79c1-.11,2.07-.29,3.09-.48Zm14.82,10.56,2.5,12.76,2.5,12.76-13.48,2.41-3.37.59c-1.12.21-2.25.4-3.38.53l-6.79.87,1.73,12.88A469.22,469.22,0,0,0,658.73,943L636.8,881.78l-11.48,3.89,16,49.46c-2.17.7-4.31,1.51-6.5,2.13l-6.59,1.88-13.18,3.73c-4.42,1.11-8.88,2.09-13.33,3.13l-2.88-12.68L596,920.65l-6.29,1.45c-1.05.23-2.1.5-3.15.7Z"/><path class="cls-2" d="M440.36,940.41l1.73-12.89-6.4-.81c-1.07-.12-2.13-.3-3.19-.5l-3.18-.57-12.71-2.27,5-25.51-3-.53c-1-.19-2-.45-3-.67l-5.91-1.37,2.89-12.67,5.71,1.32c1,.21,1.9.46,2.87.65l2.89.51,2.49-12.76-2.79-.49c-.93-.18-1.84-.42-2.77-.63l-5.52-1.28,2.88-12.68,6.67,1.56c2.22.51,4.49.82,6.73,1.24l6.74,1.2,3.37.61c1.13.2,2.25.44,3.39.55l13.6,1.72,3.39.44,3.43.26,6.84.51,6.84.54,1.71.13,1.72,0,3.43.08,13.74.36,13.74-.36,3.43-.08,1.72,0,1.71-.13,6.84-.54,1,13-5.66.44-2.84.22c-.94.06-1.89,0-2.84.08l-11.37.28-5.69.16-5.69-.16-11.37-.28-1.15,26c-1,0-2,0-3-.1l-3-.23-6.05-.46c-4-.33-8.07-.56-12.1-1l-1.34,12.93c4.15.41,8.32.65,12.48,1l6.25.48,3.12.24c1,.06,2.09.06,3.13.09l-1.15,26,13.29.34.76-52,5.88.16,5.88-.16,11.75-.29c1,0,2,0,2.94-.09l2.93-.23,5.86-.45,5.75,77.79,1,13-9,.67-2.25.16-2.26.07-4.51.12-18,.44-18-.44-4.51-.12-2.26-.07-2.25-.16-9-.67-9-.7-4.5-.36-4.48-.56L428,978.13c-1.5-.16-3-.45-4.47-.71l-4.45-.79-8.9-1.59c-3-.56-5.95-1-8.89-1.67l-8.82-2,2.88-12.67,6.86,1.57c1.15.26,2.29.55,3.44.77l3.46.62,5-25.51,13.1,2.34,3.27.58c1.09.2,2.18.39,3.28.51Zm3.46-25.77,1.73-12.89,1.73-12.88,11.65,1.49c3.89.38,7.81.6,11.71.92l1-13-8.5-.64c-.71,0-1.42-.09-2.12-.16l-2.12-.28-4.22-.54-8.45-1.07-4.22-.54-4.19-.76-2.12,12.83L433.55,900l-2.12,12.82,3.09.56c1,.19,2.05.37,3.09.48Zm11.08,14.51-1.35,12.93L452.21,955l-13.58-1.72-6.79-.87c-1.13-.13-2.26-.32-3.38-.53l-3.37-.59L423,964.12a473.44,473.44,0,0,0,98.1,5.85L518.21,905l-12.14.3.76,52-6.83.16-6.83-.16L479.5,957c-1.14,0-2.28,0-3.42-.11l-3.41-.26-6.82-.51,1-13,1-13C463.48,929.83,459.18,929.57,454.9,929.15Z"/><path class="cls-2" d="M313.15,903.31l5.47-11.79-5.88-2.67L307,885.91,295.5,880l12.34-22.88c-.91-.44-1.78-.95-2.66-1.46l-2.62-1.51-5.26-3,6.51-11.25,5.09,2.93,2.54,1.46c.85.5,1.69,1,2.57,1.42l6.17-11.45c-.85-.41-1.67-.88-2.48-1.36l-2.46-1.42-4.92-2.83,6.51-11.26,5.94,3.43c1,.56,2,1.16,3,1.69l3.06,1.55L341,830.31c8.35,3.71,16.57,7.71,25.14,10.85l6.37,2.52,1.59.63,1.62.54,3.25,1.09c4.33,1.43,8.63,3,13,4.35L405.1,854l3.29.94,3.34.76,6.67,1.53-2.88,12.68c-3.68-.87-7.38-1.66-11-2.57l-10.91-3.11-5.46-1.54c-1.82-.51-3.59-1.2-5.39-1.78L372,857.31l-8.77,24.47c-1-.33-1.92-.63-2.87-1l-2.82-1.11-5.64-2.23-5.65-2.22c-1.87-.77-3.78-1.42-5.61-2.3l-5.11,11.95c1.88.91,3.86,1.59,5.79,2.37l5.82,2.3,5.83,2.3,2.91,1.15c1,.36,2,.67,3,1L350,918.5l12.6,4.26L378.7,873.3c1.86.61,3.69,1.32,5.57,1.84l5.65,1.6L401.21,880c3.79.95,7.62,1.77,11.43,2.67l-17.29,76.06-2.88,12.67-8.82-2-4.41-1-4.35-1.22-17.41-4.95c-5.76-1.81-11.45-3.82-17.17-5.73L336,954.92l-2.14-.73-2.11-.82-8.42-3.31c-11.31-4.22-22.22-9.39-33.2-14.37L274,927.45l-4-2.07c-1.34-.7-2.63-1.48-3.94-2.22l-7.84-4.5,6.51-11.26,6.1,3.51,3.06,1.75c1,.59,2,1.17,3.08,1.69l12.34-22.88,11.84,6.06,5.92,3Zm10.94-23.58,5.47-11.79L335,856.15l10.7,4.84c1.76.85,3.62,1.48,5.43,2.22l5.46,2.15,4.75-12.1-7.92-3.11c-1.33-.49-2.6-1.13-3.9-1.7l-3.87-1.76c-5.16-2.36-10.4-4.55-15.39-7.27L324.47,851l-5.83,11.63-5.82,11.62,5.57,2.85Zm6.29,17.11-5.11,11.95-5.12,12-12.48-5.63-6.23-2.84-6.09-3.11-5.83,11.62a469.53,469.53,0,0,0,92.11,34.68l16.31-62.92-11.66-3.32-14.56,49.92-6.59-1.88c-2.19-.62-4.33-1.43-6.5-2.13l-13-4.4c-1.08-.37-2.16-.72-3.23-1.11l-3.19-1.25-6.37-2.51,4.75-12.1,4.75-12.1-6-2.37C334.36,898.48,332.33,897.77,330.38,896.84Z"/><path class="cls-2" d="M202.59,830.3l8.71-9.66c-1.66-1.37-3.17-2.92-4.74-4.39l-4.67-4.45-4.67-4.46-2.34-2.22-2.22-2.34,18.52-18.25-8.38-8.78,9.53-8.85,8.11,8.51,9.26-9.12-7.84-8.23,9.53-8.84,9.46,9.93,9.93,9.46,2.48,2.38c.83.78,1.72,1.5,2.58,2.25l5.19,4.49,5.18,4.5c1.74,1.49,3.59,2.84,5.37,4.26l5.39,4.24c1.81,1.4,3.55,2.9,5.45,4.17l11.18,8,1.39,1c.47.33,1,.62,1.44.93l2.89,1.84,5.77,3.7c1.94,1.22,3.81,2.53,5.79,3.67l5.95,3.4-6.51,11.26-4.93-2.83c-.81-.47-1.65-.92-2.45-1.42l-2.39-1.54L291,816.72c-3.24-2-6.25-4.26-9.35-6.44s-6.2-4.35-9.24-6.6l-15.61,20.79-9.54-7.5-4.78-3.75c-1.56-1.28-3.06-2.64-4.6-4l-8.41,9.91c1.59,1.36,3.14,2.75,4.75,4.08l4.92,3.87,9.85,7.74-15.61,20.79c3.56,2.64,7.21,5.16,10.81,7.74l30-42.49c3.2,2.25,6.32,4.62,9.67,6.65l9.89,6.34,2.47,1.59c.83.52,1.69,1,2.54,1.48l5.09,2.92L264.75,907.4l-6.51,11.26-7.84-4.52c-2.6-1.52-5.09-3.22-7.65-4.82l-7.61-4.88-3.8-2.44c-.63-.42-1.27-.81-1.89-1.24l-1.85-1.3L212.87,889c-2.49-1.7-4.8-3.64-7.19-5.47l-7.1-5.59c-2.36-1.88-4.77-3.69-7.06-5.63l-6.84-5.91-6.83-5.92c-1.13-1-2.29-2-3.39-3l-3.28-3.11-13.07-12.47-12.47-13.07,9.52-8.85,9.71,10.18,18.53-18.24,2.29,2.4,2.4,2.29,4.81,4.59,4.82,4.59C199.34,827.29,200.89,828.88,202.59,830.3ZM220,811l8.7-9.66,8.7-9.65,8.88,7.68c1.49,1.28,2.95,2.59,4.46,3.84l4.62,3.62,8.11-10.16L260.12,794c-.56-.45-1.13-.87-1.67-1.33l-1.61-1.39-6.44-5.59-3.22-2.79c-1.06-.94-2.19-1.81-3.19-2.82l-6.16-5.89-9,9.39-9,9.4-9,9.39,4.54,4.33C216.93,808.15,218.39,809.65,220,811Zm1.05,18.11L212.64,839l-8.41,9.91-10.34-9c-1.75-1.46-3.35-3.1-5-4.65l-5-4.72-9,9.39a475.25,475.25,0,0,0,77.71,60.24L286.86,845l-10.21-6.54L248,881.78c-3.89-2.39-7.54-5.13-11.27-7.75s-7.46-5.26-11.13-8l-10.76-8.45,8.11-10.16L231,837.29l-5.07-4C224.29,831.93,222.69,830.49,221.05,829.09Z"/><path class="cls-2" d="M118.42,728l11.15-6.68-6.43-11.19-1.61-2.8c-.54-.93-1.08-1.87-1.55-2.83l-3-5.75,23.07-12L134.56,676l11.71-5.65,5.36,10.45,11.54-6L158,664.66,169.69,659a404,404,0,0,0,27.46,47.38l7.95,11.18c1.27,1.9,2.77,3.64,4.17,5.45l4.24,5.39c1.42,1.78,2.77,3.63,4.26,5.37l4.5,5.18,4.49,5.19c.75.86,1.47,1.75,2.25,2.58l2.38,2.48-9.53,8.84c-2.68-2.68-5.09-5.61-7.58-8.46s-5-5.71-7.43-8.6l-7-8.94-3.52-4.46c-1.16-1.5-2.2-3.08-3.31-4.61l-21,15.3-7-9.89c-1.21-1.62-2.26-3.35-3.36-5l-3.27-5.11-10.95,7,3.38,5.27c1.13,1.75,2.22,3.54,3.47,5.21l7.25,10.21-21,15.3c1.3,1.79,2.54,3.63,3.89,5.39l4.1,5.23L189.56,740l7.25,9.24c2.53,3,5.13,5.93,7.68,8.9s5.07,6,7.84,8.74L155.16,820l-9.52,8.85-3.11-3.28c-1-1.1-2-2.26-3-3.39l-5.92-6.83-5.91-6.84c-1.94-2.29-3.75-4.7-5.63-7.06l-5.59-7.1c-1.83-2.39-3.77-4.7-5.47-7.19L100.54,772.4a520.1,520.1,0,0,1-36.23-62.55L76,704.21l6.41,12.54,23.07-12,3,5.92c.49,1,1,2,1.6,2.91l1.66,2.89Zm22.31-13.36L151.88,708,163,701.28c.5.85,1,1.71,1.48,2.54l1.59,2.47,3.17,4.94,3.17,4.95c1.06,1.64,2.07,3.32,3.25,4.89l10.73-7.33c-.41-.58-.83-1.15-1.23-1.74L184,710.2l-2.29-3.59-4.6-7.16c-1.59-2.36-3-4.84-4.37-7.31l-4.25-7.38-11.35,6.34-11.35,6.34-11.34,6.34Zm-4.31,17.62-10.95,7-10.94,7-3.69-5.77L109,737.63c-.6-1-1.15-2-1.72-3l-6.83-11.86-11.35,6.34a474.8,474.8,0,0,0,56.68,80.35l48.94-42.79c-2.64-3.06-5.32-6.1-7.93-9.18l-40.15,33.05-8.46-10.76-4.23-5.38c-1.38-1.81-2.66-3.7-4-5.55L122,757.73l10.74-7.33,10.73-7.33c-1.28-1.73-2.4-3.57-3.57-5.38Z"/><path class="cls-2" d="M68.17,605.37l12.64-3.07L77.9,589.72c-.23-1.05-.5-2.1-.7-3.15l-.57-3.18L75.49,577l25.59-4.62-1.07-6-.53-3c-.19-1-.36-2-.47-3l12.86-1.92c.1,1,.27,1.94.45,2.9l.52,2.89,1,5.77,12.8-2.3-1-5.59-.51-2.79c-.18-.93-.34-1.86-.44-2.8l12.86-1.93a400.52,400.52,0,0,0,12.13,53.37,406.82,406.82,0,0,0,20,50.95L158,664.66l-4.67-10.34c-1.55-3.45-3.19-6.86-4.49-10.41l-4.17-10.56-1-2.63c-.33-.89-.61-1.79-.92-2.69l-1.81-5.37-24.6,8.4c-1.28-3.84-2.65-7.64-3.85-11.5l-3.3-11.67-12.54,3.45,3.42,12c1.23,4,2.65,7.92,4,11.88l-24.6,8.4L81.5,650c.36,1,.7,2.11,1.08,3.15l1.22,3.09,48.68-18.28,4.31,10.92c1.35,3.68,3,7.21,4.65,10.78l4.83,10.69L76,704.21l-11.71,5.64a522.91,522.91,0,0,1-26.42-67.33,516.09,516.09,0,0,1-16-70.52l12.85-1.92c.13,1.17.33,2.32.54,3.48l.62,3.46L37.11,584l25.59-4.62,1.17,6.55.59,3.27c.21,1.09.48,2.17.72,3.25Zm25.27-6.14,12.63-3.08,12.63-3.07c.46,1.9.84,3.83,1.35,5.71l1.61,5.65,3.2,11.29,12.42-3.83-4.65-16.37c-1.33-5.51-2.55-11-3.85-16.57l-12.72,2.69-12.72,2.69L90.62,587Zm-9.38,15.56-12.53,3.45L59,621.69l-1.86-6.59c-.59-2.2-1.06-4.44-1.59-6.66L52.47,595.1l-12.72,2.69A467.93,467.93,0,0,0,70.2,691.38l59.36-26.47c-1.65-3.69-3.4-7.34-4.8-11.13L76.65,673.51l-5-12.74-1.25-3.19c-.39-1.07-.74-2.15-1.11-3.23l-2.2-6.49c-1.45-4.33-3-8.63-4.33-13L75.16,631l12.43-3.83Z"/><path class="cls-2" d="M56.36,473.44l13,.76,1-12.87c.19-2.14.28-4.3.54-6.43l.82-6.41,25.81,3.08,1.53-12,12.86,1.92-1.48,11.65,12.91,1.54,1.42-11.27,12.86,1.93-1.72,13.6-.44,3.39-.26,3.43-.51,6.84-.54,6.84-.13,1.71,0,1.72-.08,3.43L133.5,500l.36,13.74.08,3.43,0,1.72.13,1.71.54,6.84.51,6.84.26,3.43.44,3.39,1.72,13.6-12.86,1.93c-2-15-3.66-30.08-3.92-45.26l-26,.77L94.5,500l.31-12.14-13-.38L81.5,500l.32,12.52-26,.77.17,6.64c0,1.11,0,2.21.11,3.32l.25,3.31,51.91-3.06.89,11.72c.17,1.95.24,3.91.48,5.85l.75,5.83,1.48,11.65L34.72,570.08,21.87,572l-2.29-17.94L19,549.58l-.36-4.5-.7-9-.67-9-.16-2.25-.07-2.26L16.94,518l-.44-18,.44-18,.12-4.51.07-2.26.16-2.25.67-9,.7-9,.36-4.5.56-4.48L21.87,428l12.85,1.92-1.78,14L58.76,447l-.84,6.59c-.27,2.2-.37,4.42-.56,6.63Zm26,1.53,13,.76,13,.77-.23,2.93c-.06,1-.06,2-.09,2.94l-.14,5.87L107.5,500h13l.44-17.06c0-2.85.34-5.67.52-8.51l.65-8.5-13-1.15-13-1.15-12.95-1.15ZM68.82,487.1l-13-.39-13-.38L43,479.5c0-1.14.05-2.28.11-3.42l.26-3.41,1-13.64-12.94-1.15a475.84,475.84,0,0,0,1.47,98.24l64.54-7.69-.77-6c-.25-2-.33-4-.5-6L44.41,541l-1-13.64-.26-3.41c-.06-1.14-.07-2.28-.11-3.42l-.17-6.83L42.5,500h26Z"/><path class="cls-2" d="M83.8,343.8,96,348.37l4.74-12c1.5-4,3.34-7.93,5.11-11.86l23.74,10.59,5-11,11.71,5.65-4.83,10.69,11.87,5.3L158,335.34,169.69,341a406.82,406.82,0,0,0-20,50.95,400.52,400.52,0,0,0-12.13,53.37l-12.86-1.93c.1-.94.26-1.87.44-2.8l.51-2.79,1-5.59,1-5.59.49-2.79c.18-.93.42-1.84.63-2.77L131.33,410c.44-1.84.81-3.7,1.3-5.52l1.56-5.46-25.06-6.9,3.3-11.67c1.2-3.86,2.57-7.66,3.85-11.5L104,364.74c-1.31,4-2.73,7.89-4,11.88l-3.42,12-25.06-6.9-1.82,6.4c-.57,2.14-1,4.31-1.54,6.47l50.53,12.29-2.64,11.43c-.21,1-.46,1.9-.65,2.87l-.51,2.89-1,5.78-1,5.77-.52,2.89c-.18,1-.35,1.93-.45,2.9L34.72,429.92,21.87,428a516.09,516.09,0,0,1,16-70.52,522.91,522.91,0,0,1,26.42-67.33L76,295.79,70.2,308.62l23.74,10.59c-1.81,4-3.71,8.05-5.26,12.21Zm24.34,9.14,12.17,4.57,12.17,4.57-1.08,2.72c-.33.92-.63,1.86-1,2.78l-1.87,5.56c-1.23,3.71-2.57,7.4-3.72,11.13l12.42,3.83c1.73-5.4,3.63-10.75,5.41-16.13.84-2.72,2-5.31,3-8l3.12-7.92-12-4.93-12-4.94-12-4.93Zm-16.47,7.6-12.3-4.2-12.3-4.2,2.2-6.49c.37-1.08.72-2.16,1.11-3.23l1.25-3.19,5-12.74-12-4.94A469.23,469.23,0,0,0,37.11,416l64,11.54,1.06-6,.53-3c.19-1,.45-2,.67-3L52.47,404.9l3.07-13.34c.53-2.22,1-4.46,1.59-6.66L59,378.31l3.75-13.18L75.16,369l12.43,3.83C88.86,368.68,90.31,364.62,91.67,360.54Z"/><path class="cls-2" d="M148.44,228.14l10.28,8,8-10.15c2.78-3.29,5.62-6.52,8.43-9.78l19.58,17.12c2.65-3,5.23-6.17,8.09-9l9.53,8.85c-2.77,2.77-5.27,5.79-7.84,8.74l9.79,8.56c2.49-2.85,4.9-5.78,7.58-8.46l9.53,8.84L229,253.26c-.78.83-1.5,1.72-2.25,2.58L222.27,261l-4.5,5.18c-1.49,1.74-2.84,3.59-4.26,5.37L209.27,277c-1.4,1.81-2.9,3.55-4.17,5.45l-7.95,11.18A404,404,0,0,0,169.69,341L158,335.34c6.83-13.5,13.9-26.92,22.24-39.56l-21.9-14,3.27-5.11c1.1-1.7,2.15-3.43,3.36-5l7-9.89-10.51-7.65-7.25,10.21c-1.25,1.67-2.34,3.46-3.47,5.21l-3.38,5.27-21.9-14-3.58,5.6-1.79,2.8c-.59.94-1.12,1.92-1.68,2.87L163,298.72l-5.85,10.18-1.46,2.54c-.5.85-1,1.69-1.42,2.57l-2.67,5.23-5.36,10.45L76,295.79l-11.71-5.64a520.1,520.1,0,0,1,36.23-62.55L111,212.87c1.7-2.49,3.64-4.8,5.47-7.19l5.59-7.1c1.88-2.36,3.69-4.77,5.63-7.06l5.91-6.84,5.92-6.83c1-1.13,2-2.29,3-3.39l3.11-3.28,9.52,8.85c-3.29,3.34-6.31,6.94-9.39,10.47l19.58,17.12c-2.9,3.35-5.83,6.68-8.69,10.07ZM169,244.06l10.28,8,10.28,8-3.64,4.61c-1.19,1.55-2.28,3.18-3.42,4.77l-6.81,9.57,10.73,7.33c3.32-4.61,6.56-9.27,9.9-13.86L206.85,259l-10-8.26-10-8.27-10-8.26Zm-18,2.35-10.51-7.65-10.51-7.65c1.34-1.85,2.62-3.74,4-5.55l4.23-5.38,8.46-10.76-10-8.26a474.58,474.58,0,0,0-54.16,82.09l57.67,30,2.76-5.4c.44-.91.95-1.78,1.46-2.66l1.51-2.62-45.39-25.37,6.83-11.86c.57-1,1.12-2,1.72-3l1.85-2.88,3.69-5.77,3.69-5.76c1.24-1.91,2.44-3.86,3.79-5.69l10.74,7.33,10.73,7.33Z"/><path class="cls-2" d="M244.18,136.6l7.49,10.62c3.52-2.47,7-5.06,10.64-7.31l10.87-7,13.68,22.11,2.56-1.64c.85-.54,1.75-1,2.62-1.53l5.26-3,6.51,11.25L298.72,163c-.85.5-1.71,1-2.54,1.48l-2.47,1.59,6.84,11.05,2.39-1.54c.8-.5,1.64-1,2.45-1.42l4.93-2.83,6.51,11.26-5.95,3.4c-2,1.14-3.85,2.45-5.79,3.67l-5.77,3.7-2.89,1.84c-.48.31-1,.6-1.44.93l-1.39,1-11.18,7.95c-1.9,1.27-3.64,2.77-5.45,4.17l-5.39,4.24c-1.78,1.42-3.63,2.77-5.37,4.26l-5.18,4.5-5.19,4.49c-.86.75-1.75,1.47-2.58,2.25l-2.48,2.38-9.93,9.46-9.46,9.93-9.53-8.84,7.84-8.23,2-2.06,2.06-2,4.12-3.92,4.11-3.92c1.38-1.29,2.7-2.67,4.16-3.87l8.59-7.43-16.82-19.83c1.54-1.31,3-2.67,4.6-3.95l4.78-3.75,9.54-7.5L249,165.13l-9.85,7.74-4.92,3.87c-1.61,1.33-3.16,2.72-4.75,4.08L212.64,161l-10,8.71,34.81,38.63c-1.51,1.25-2.87,2.66-4.3,4l-4.25,4.06-4.26,4.05-2.13,2-2,2.13-8.11,8.51L155.16,180l-9.52-8.85,12.47-13.07,13.07-12.47,3.28-3.11c1.1-1,2.26-2,3.39-3l6.83-5.92,6.84-5.91c2.29-1.94,4.7-3.75,7.06-5.63l7.1-5.59c2.39-1.83,4.7-3.77,7.19-5.47l14.73-10.48,1.85-1.3c.62-.43,1.26-.82,1.89-1.24l3.8-2.44,7.61-4.88c2.56-1.6,5.05-3.3,7.65-4.82l7.84-4.52,6.51,11.26-6.1,3.51c-1,.6-2,1.16-3,1.78l-3,1.89,13.69,22.11-11.19,7.18C251.35,131.38,247.81,134.05,244.18,136.6Zm15,21.25,7.5,10.62,7.49,10.62c-3.18,2.29-6.41,4.51-9.56,6.83l-9.23,7.27,8.11,10.16,6.7-5.27c1.12-.87,2.2-1.79,3.36-2.61L277,193l6.94-4.94,3.47-2.48c1.16-.81,2.38-1.53,3.57-2.31l-7.17-10.84-7.17-10.85-7.17-10.84C265.91,152.93,262.58,155.45,259.16,157.85Zm-18-3.11-7.8-10.4-7.81-10.4c3.67-2.71,7.42-5.31,11.13-8s7.38-5.36,11.27-7.75l-7.17-10.84-2.59,1.67-1.29.83-1.26.89-5,3.56-10,7.14c-.83.61-1.68,1.18-2.5,1.81l-2.42,1.89-4.84,3.8-9.68,7.62c-3.14,2.64-6.22,5.35-9.33,8l-4.65,4-2.32,2c-.78.67-1.55,1.35-2.28,2.07l-8.92,8.49-4.45,4.25c-.73.72-1.49,1.41-2.21,2.14l-2.13,2.23,46.31,45.62,2.09-2.2,2.2-2.09,4.39-4.19-35.94-37.58,5-4.72c1.67-1.55,3.27-3.19,5-4.65l10.34-9c1.73-1.48,3.44-3,5.19-4.45l5.38-4.24,8.11,10.16L231,162.71Z"/><path class="cls-2" d="M362.64,77.24l4,12.36c2-.66,4.06-1.43,6.13-2L379,85.82l12.42-3.52,6.52,25.16c3.93-1,7.88-1.83,11.81-2.75l2.89,12.67c-3.81.9-7.64,1.72-11.43,2.67l3.26,12.58c3.67-.91,7.37-1.7,11-2.57l2.88,12.68-6.67,1.53-3.34.76-3.29.94-13.17,3.74c-4.35,1.37-8.65,2.92-13,4.35l-3.25,1.09-1.62.54-1.59.63-6.37,2.52C357.55,162,349.33,166,341,169.69L328.8,176l-3.06,1.55c-1,.53-2,1.13-3,1.69l-5.94,3.43-6.51-11.26,4.92-2.83,2.46-1.42c.81-.48,1.63-1,2.48-1.36l10.11-5.17,5-2.6,5.17-2.33L350.84,151l-10.23-23.91c1.83-.88,3.74-1.53,5.61-2.3l5.65-2.22,5.64-2.23,2.82-1.11c.95-.35,1.91-.65,2.87-1L358.81,106c-1,.34-2,.65-3,1l-2.91,1.15-5.83,2.3-5.82,2.3c-1.93.78-3.91,1.46-5.79,2.37l-10.23-23.9-12.12,5.48L335,143.85l-5.34,2.42L324.47,149,314,154.3c-.88.43-1.72.92-2.57,1.42l-2.54,1.46-5.09,2.93L264.75,92.6l-6.51-11.26,7.84-4.5c1.31-.74,2.6-1.52,3.94-2.22l4-2.07,16.11-8.24c11-5,21.89-10.15,33.2-14.37l8.42-3.31,2.11-.82,2.14-.73,4.29-1.46c5.72-1.91,11.41-3.92,17.17-5.73l17.41-5,4.35-1.22,4.41-1,8.82-2,2.88,12.67c-4.57,1.08-9.16,2.08-13.72,3.22l6.53,25.17-12.8,3.63L369,75.16C366.83,75.77,364.75,76.55,362.64,77.24Zm8,24.73,4,12.36,4,12.37-11.12,3.75c-.92.32-1.86.62-2.78,1l-2.72,1.08-5.46,2.16,4.75,12.1,7.91-3.13,8.06-2.73,8.06-2.73c.67-.23,1.34-.48,2-.68l2-.57,4.1-1.16-3.64-12.48-3.64-12.48L382.64,98.3l-6,1.71C374.61,100.57,372.65,101.32,370.67,102Zm-16.25-8.23L350,81.5l-4.39-12.23,13-4.4c2.17-.7,4.31-1.51,6.5-2.13l6.59-1.88-3.64-12.48A470.07,470.07,0,0,0,277,85.65l30.85,57.21,10.8-5.53L295.35,90.84l6.09-3.11,6.23-2.84,12.48-5.63c2.07-1,4.22-1.74,6.34-2.61l6.37-2.51,4.75,12.1,4.75,12.1,6-2.37,3-1.18C352.38,94.42,353.41,94.09,354.42,93.74Z"/><path class="cls-2" d="M493.36,55.66l.19,13L500,68.5l6.45.16,12.91.33-1.15,26c1,0,2,0,3,.1l3,.23,6.05.46-1,13-5.86-.45-2.93-.23c-1-.06-2-.06-2.94-.09l-.57,13c1,0,1.9,0,2.84.08l2.84.22,5.66.44-1,13-6.84-.54-1.71-.13-1.72,0-3.43-.08L500,133.5l-13.74.36-3.43.08-1.72,0-1.71.13-6.84.54-6.84.51-3.43.26-3.39.44-13.6,1.72c-1.14.11-2.26.35-3.39.55l-3.37.61-6.74,1.2c-2.24.42-4.51.73-6.73,1.24l-6.67,1.56-2.88-12.68,5.52-1.28c.93-.21,1.84-.45,2.77-.63l2.79-.49,11.18-2,2.79-.51c.93-.18,1.86-.34,2.8-.44L449,124l11.26-1.45-2.69-25.86c4-.4,8.07-.63,12.1-1l6.05-.46,3-.23c1-.07,2-.06,3-.1l-.57-13c-1,0-2.09,0-3.13.09l-3.12.24-6.25.48c-4.16.34-8.33.58-12.48,1l-2.69-25.86-13.19,1.67,6.92,51.54-5.83.74c-1,.1-1.94.27-2.9.45l-2.89.52-11.55,2.06-2.89.51c-1,.19-1.91.44-2.87.65l-5.71,1.32L395.35,41.32l-2.88-12.67,8.82-2c2.94-.66,5.92-1.11,8.89-1.67l8.9-1.59,4.45-.79c1.49-.26,3-.55,4.47-.71l17.94-2.29,4.48-.56,4.5-.36,9-.7,9-.67,2.25-.16,2.26-.07,4.51-.12,18-.44,18,.44,4.51.12,2.26.07,2.25.16,9,.67-1,13-7-.53-3.51-.26c-1.17-.07-2.34-.07-3.51-.11l-1.15,26-13.29-.34L500,55.5Zm.38,26,.19,13,.19,13-11.75.29c-1,0-2,0-2.94.09l-2.93.23-5.86.45,1,13,8.5-.66,8.53-.22c5.68-.1,11.37-.44,17.06-.14l.19-13,.19-13,.19-13L500,81.5ZM480.64,69l-.57-13-.57-13,13.67-.35L500,42.5l6.83.16.2-13a474.34,474.34,0,0,0-97.92,8.69l12.5,63.78L433.55,100,425.09,48.7l3.37-.59c1.12-.21,2.25-.4,3.38-.53l6.79-.87L452.21,45c4.54-.45,9.09-.73,13.64-1.1l1,13,1,13,6.43-.49,3.22-.24C478.49,69,479.57,69,480.64,69Z"/><path class="cls-2" d="M624.64,73.34,621,85.82l6.21,1.77c2.07.58,4.09,1.35,6.13,2l12.24,4.14-8.78,24.48c1,.33,1.92.63,2.87,1l2.82,1.11,5.64,2.23-4.75,12.1-5.46-2.16-2.72-1.08c-.92-.33-1.86-.63-2.78-1L628,142.69c.9.31,1.8.59,2.69.92l2.63,1,5.28,2.09-4.75,12.1-6.37-2.52-1.59-.63-1.62-.54-3.25-1.09c-4.33-1.43-8.63-3-13-4.35L594.9,146l-3.29-.94-3.34-.76-6.67-1.53-6.67-1.56c-2.22-.51-4.49-.82-6.73-1.24l-6.74-1.2-3.37-.61c-1.13-.2-2.25-.44-3.39-.55l-13.6-1.72-3.39-.44-3.43-.26-6.84-.51,1-13c3.78.31,7.56.52,11.33.89L551,124l5.64.7c.94.1,1.87.26,2.8.44l2.79.51,11.18,2,5-25.52,3,.53c1,.19,2,.45,3,.67l5.91,1.37c3.93.92,7.88,1.78,11.81,2.75l3.26-12.58c-4.05-1-8.13-1.89-12.19-2.85L587,90.62c-1-.22-2-.49-3.06-.68l-3.08-.55,5-25.52-13.1-2.34-8.45,51.31-2.89-.52c-1-.18-1.93-.35-2.9-.45l-5.83-.74-11.65-1.49c-3.89-.38-7.81-.6-11.71-.92l5.75-77.79,1-13,9,.7,4.5.36,4.48.56L572,21.87c1.5.16,3,.45,4.47.71l4.45.79,8.9,1.59c3,.56,5.95,1,8.89,1.67l8.82,2,8.82,2,4.41,1,4.35,1.22,17.41,5c5.76,1.81,11.45,3.82,17.17,5.73L664,45.08l2.14.73,2.11.82,8.42,3.31L671.9,62l-6.56-2.58-3.28-1.28c-1.1-.41-2.22-.77-3.33-1.15L650,81.5l-12.6-4.26c-2.11-.69-4.19-1.47-6.32-2.08Zm-7.28,25-3.64,12.48-3.64,12.48-11.29-3.21c-3.79-1-7.62-1.77-11.43-2.67l-2.88,12.68,8.3,1.91,2.07.47,2,.58,4.09,1.17,8.18,2.32c1.36.4,2.74.75,4.09,1.18l4,1.37,4-12.36,4-12.37,4-12.36c-2-.65-3.94-1.4-6-2Zm-8.78-16,3.26-12.59,3.26-12.58,13.18,3.73,6.59,1.88c2.19.62,4.33,1.43,6.5,2.13l4-12.36a468.24,468.24,0,0,0-96.26-20.45l-6.71,64.65,12,1.54,6.92-51.54,6.79.87c1.13.13,2.26.32,3.38.53l3.37.59,13.48,2.41,3.37.61c1.12.22,2.22.5,3.34.75L601.77,54l-2.88,12.68L596,79.35C600.2,80.34,604.41,81.25,608.58,82.3Z"/><path class="cls-2" d="M744.86,129.07l-7.17,10.84c3.68,2.25,7.12,4.84,10.64,7.31s7,5,10.5,7.52l-15.62,20.79,9.54,7.5-8.11,10.16-9.23-7.27-7.81,10.4,8.93,7-8.11,10.16L723,209.27c-1.81-1.4-3.55-2.9-5.45-4.17l-11.18-7.95-1.39-1c-.47-.33-1-.62-1.44-.93l-2.89-1.84-5.77-3.7c-1.94-1.22-3.81-2.53-5.79-3.67l-6-3.4-5.94-3.43c-1-.56-2-1.16-3-1.69L671.2,176,659,169.69c-8.35-3.71-16.57-7.7-25.14-10.85l4.75-12.1,5.28,2.08c1.75.71,3.54,1.32,5.25,2.15l10.33,4.68,5.17,2.33,5.05,2.6,10.11,5.17,12.34-22.89c.91.44,1.78.95,2.66,1.46l2.62,1.51,5.26,3,5.26,3c.87.51,1.77,1,2.62,1.53l2.56,1.64L720,144l-2.64-1.69c-.88-.55-1.8-1.05-2.7-1.57l-5.43-3.12-5.43-3.12-2.71-1.57c-.9-.52-1.8-1-2.74-1.5l12.34-22.89-11.84-6.06L675.53,149l-5.22-2.69L665,143.85,654.27,139c-1.76-.85-3.62-1.48-5.43-2.22l-5.46-2.15L671.9,62l4.75-12.1c11.31,4.22,22.22,9.39,33.2,14.37L726,72.55l4,2.07c1.34.7,2.63,1.48,3.94,2.22l7.84,4.5,7.84,4.52c2.6,1.52,5.09,3.22,7.65,4.82l7.61,4.88,3.8,2.44c.63.42,1.27.81,1.89,1.24l1.85,1.3L787.13,111c2.49,1.7,4.8,3.64,7.19,5.47l7.1,5.59-8.11,10.16-11.07-8.69-15.61,20.79c-3.56-2.64-7.21-5.16-10.81-7.74S748.65,131.38,744.86,129.07Zm-14.34,21.68-7.17,10.84-7.17,10.85-9.89-6.34-2.47-1.59c-.83-.52-1.69-1-2.54-1.48l-5.09-2.92-6.51,11.25c2.46,1.43,4.94,2.81,7.38,4.25l7.16,4.61,7.18,4.59c2.36,1.57,4.64,3.28,7,4.91l7.49-10.63,7.49-10.62,7.5-10.62C737.42,155.45,734.09,152.93,730.52,150.75Zm-3.7-17.81,6.85-11,6.84-11c7.67,5,15.47,9.7,22.8,15.13l7.49-10.62A472.09,472.09,0,0,0,685,67.3l-25.57,59.76,11.05,5,21.89-47.17,6.23,2.84,6.09,3.11,12.19,6.25c1,.51,2,1.07,3,1.65l3,1.7,5.93,3.41-6.51,11.25-6.51,11.25,5.6,3.22c.93.55,1.87,1.06,2.79,1.63Z"/><path class="cls-2" d="M843.34,217.69l-10,8.26,8,10.15,4,5.07c1.31,1.71,2.52,3.5,3.78,5.24l-21,15.3,7,9.89-10.74,7.33-6.81-9.57L807,277l6.59,9.25-10.73,7.34-8-11.18c-1.27-1.9-2.77-3.64-4.17-5.45l-4.24-5.39c-1.42-1.78-2.77-3.63-4.26-5.37l-4.5-5.18-4.49-5.19c-.75-.86-1.47-1.75-2.25-2.58l-2.38-2.48-9.46-9.93-9.93-9.46L746.74,229c-.83-.78-1.72-1.5-2.58-2.25L739,222.27l-5.18-4.5c-1.74-1.49-3.59-2.84-5.37-4.26l8.11-10.16,4.47,3.5c1.46,1.2,2.87,2.48,4.31,3.71L753.9,218c1.46,1.2,2.78,2.58,4.16,3.87l4.11,3.92,4.12,3.92,2.06,2,1.95,2.06,18.52-18.24,8.38,8.78c2.86,2.87,5.44,6,8.09,9l9.79-8.56c-2.74-3.15-5.41-6.36-8.35-9.32l-8.65-9.07,18.52-18.25-2.29-2.4-2.4-2.29-4.81-4.59-36,37.58-4.25-4.06c-1.43-1.34-2.79-2.75-4.3-4l-8.88-7.68c-1.49-1.28-3-2.59-4.46-3.84l-4.62-3.62,48.67-60.95,8.11-10.16c2.36,1.88,4.77,3.69,7.06,5.63l6.84,5.91,6.83,5.92c1.13,1,2.29,2,3.39,3l3.28,3.11,13.07,12.47,12.47,13.07,3.11,3.28c1,1.1,2,2.26,3,3.39l5.92,6.83,5.91,6.84c1.94,2.29,3.75,4.7,5.63,7.06l5.59,7.1c1.83,2.39,3.77,4.7,5.47,7.19l10.48,14.73-10.74,7.34-8.15-11.48-21,15.3c-1.3-1.79-2.54-3.63-3.89-5.39l-4.1-5.23Zm-20.08,16.52-10,8.26-10,8.27c-2.53-3-5.13-5.93-7.68-8.9s-5.07-6-7.84-8.74l-9.53,8.84c1,1,2,2,2.94,3.09l2.78,3.22,5.58,6.44,2.8,3.22c1,1.06,1.77,2.22,2.66,3.32l5.26,6.71,10.28-8,10.28-8,10.28-8Zm1.61-18,9.78-8.55,9.79-8.56c3,3.45,6,6.88,8.93,10.36l8.46,10.76,10.28-8a475.15,475.15,0,0,0-67.93-71.05l-42,49.56,9.17,8L806.11,160c1.75,1.46,3.35,3.1,5,4.65l5,4.72,4.95,4.72,2.47,2.37,2.37,2.47,9.44,9.9-9.53,8.85-9.53,8.84C819.29,209.62,822,212.93,824.87,216.17Z"/><path class="cls-2" d="M911.32,331.42l-12,4.94,4.74,12,1.18,3c.37,1,.7,2,1,3.05l2.07,6.12-24.61,8.4c1.28,3.84,2.65,7.64,3.85,11.5l-12.43,3.83c-1.15-3.73-2.49-7.42-3.72-11.13l-12.3,4.2c1.19,3.59,2.48,7.15,3.6,10.76l-12.43,3.83a406.82,406.82,0,0,0-20-50.95,404,404,0,0,0-27.46-47.38l10.73-7.34c1.14,1.52,2.11,3.14,3.14,4.73l3.06,4.79,3.07,4.77,1.54,2.39c.5.8,1,1.64,1.42,2.45l5.66,9.85,1.42,2.46c.48.81,1,1.63,1.36,2.48l2.58,5.06,23.07-12,5.54,10.8,5,11,11.87-5.3-5.17-11.4-5.71-11.14,23.07-12-3-5.92c-.49-1-1.05-1.95-1.6-2.91l-1.66-2.89L842.82,308.9,837,298.72c-.5-.85-1-1.71-1.48-2.54l-1.59-2.47-3.17-4.94-3.17-4.95c-1.06-1.64-2.07-3.32-3.25-4.89l64.41-44,10.74-7.34a520.1,520.1,0,0,1,36.23,62.55,522.91,522.91,0,0,1,26.42,67.33l-12.43,3.82c-1.38-4.48-3-8.91-4.44-13.36l-24.61,8.4L918.5,350c-.36-1.05-.7-2.11-1.08-3.15l-1.22-3.09Zm-24.06,9.87-12,4.93-12,4.94c-1.35-3.68-3-7.21-4.65-10.78l-4.83-10.69L842,335.34l7,15.5c.62,1.28,1.12,2.61,1.63,3.93l1.56,4,3.13,7.92,12.17-4.57,12.17-4.57,12.17-4.57Zm6.92-16.79,11.88-5.29,11.87-5.3c3.93,8.25,7,16.84,10.44,25.32l12.17-4.57a470.71,470.71,0,0,0-44.12-87.94l-54.74,35,3.27,5.1,1.64,2.56c.54.85,1,1.75,1.53,2.62l44.61-26.71,6.83,11.86,1.7,3c.58,1,1.14,2,1.65,3l3.13,6.09,6.23,12.19-11.71,5.65-11.71,5.65Z"/><path class="cls-2" d="M942.64,460.18l-12.95,1.15,1,12.87.24,3.22c.07,1.07.07,2.15.1,3.22l.17,6.46-26,.76L905.5,500h-13l-.31-11.76-13,.39.3,11.37h-13l-.36-13.74-.08-3.43,0-1.72-.13-1.71-.54-6.84-.51-6.84-.26-3.43-.44-3.39-1.72-13.6a400.52,400.52,0,0,0-12.13-53.37l12.43-3.83L865.81,399l1.56,5.46c.49,1.82.86,3.68,1.3,5.52L871.22,421c.21.93.45,1.84.63,2.77l.49,2.79,1,5.59,25.59-4.61,1.07,6,.53,3c.19,1,.36,2,.47,3l1.53,12L915.43,450l-1.58-12.42c-.11-1-.29-2.07-.48-3.09l-.56-3.09-1.1-6.16,25.59-4.61-1.17-6.55-.59-3.27c-.21-1.09-.48-2.17-.72-3.25l-50.88,10.76-2.64-11.43c-.46-1.91-.84-3.83-1.35-5.71l-1.61-5.65-3.2-11.29,74.54-23,12.43-3.82a516.09,516.09,0,0,1,16,70.52l2.29,17.94.56,4.48.36,4.5.7,9,.67,9,.16,2.25.07,2.26.12,4.51.44,18h-13L970.16,486l-26,.76-.17-6.64c0-1.11,0-2.21-.11-3.32l-.25-3.31Zm-25.9,2.3-13,1.15-12.95,1.15c-.17-1.95-.24-3.91-.48-5.85l-.75-5.83-1.48-11.65-12.85,1.92,2.15,16.9c.51,5.66.86,11.33,1.33,17l13-.76,13-.77,13-.76Zm11.59-14L941.24,447l12.91-1.54.86,6.79c.27,2.27.38,4.55.58,6.82l1,13.64,13-.77a470,470,0,0,0-16.06-97l-62.67,17.26,1.67,5.83c.52,2,.92,3.94,1.39,5.91l50.53-12.29,3.07,13.34c.25,1.12.53,2.22.75,3.34l.61,3.37,1.2,6.74,1.21,6.74.59,3.37c.21,1.12.4,2.25.53,3.38l-12.86,1.92-12.85,1.93Z"/></g><text class="cls-3" transform="translate(151.53 711.44) scale(0.67 1)">&lt;<tspan class="cls-4" x="305.61" y="0">J</tspan><tspan x="737.16" y="0">&gt;</tspan></text></svg>