<svg id="Layer_1" data-name="Layer 1" xmlns="http://www.w3.org/2000/svg" xmlns:xlink="http://www.w3.org/1999/xlink" viewBox="0 0 300 300"><defs><style>.cls-1{opacity:0.2;}.cls-2{fill:url(#linear-gradient);}.cls-3{fill:url(#linear-gradient-2);}.cls-4{opacity:0.65;}.cls-5{fill:url(#linear-gradient-3);}.cls-6{fill:url(#linear-gradient-4);}.cls-7{fill:url(#linear-gradient-5);}.cls-8{fill:url(#linear-gradient-6);}.cls-10,.cls-9{font-size:198.56px;fill:#fff;font-family:Arial-Black, Arial;font-weight:800;letter-spacing:0.05em;}.cls-10{opacity:0.5;}</style><linearGradient id="linear-gradient" x1="27.4" y1="154.82" x2="94.17" y2="154.82" gradientUnits="userSpaceOnUse"><stop offset="0" stop-color="#0300aa"/><stop offset="1" stop-color="#d300ff"/></linearGradient><linearGradient id="linear-gradient-2" x1="205.11" y1="154.82" x2="271.87" y2="154.82" xlink:href="#linear-gradient"/><linearGradient id="linear-gradient-3" x1="20.41" y1="154.58" x2="87.18" y2="154.58" xlink:href="#linear-gradient"/><linearGradient id="linear-gradient-4" x1="10.83" y1="154.81" x2="77.6" y2="154.81" xlink:href="#linear-gradient"/><linearGradient id="linear-gradient-5" x1="212.97" y1="154.77" x2="279.74" y2="154.77" xlink:href="#linear-gradient"/><linearGradient id="linear-gradient-6" x1="222.97" y1="154.77" x2="289.74" y2="154.77" xlink:href="#linear-gradient"/></defs><rect width="300" height="300"/><g class="cls-1"><path class="cls-2" d="M94.17,205,27.4,166.87v-24l66.77-38.24v28.74L53.59,154.91l40.58,21.56Z"/><path class="cls-3" d="M205.11,176.47l40.57-21.56-40.57-21.56V104.61l66.76,38.24v24L205.11,205Z"/></g><g class="cls-4"><path class="cls-5" d="M87.18,204.79,20.41,166.62v-24l66.77-38.23v28.74L46.6,154.66l40.58,21.56Z"/></g><path class="cls-6" d="M77.6,205,10.83,166.86v-24L77.6,104.6v28.74L37,154.89,77.6,176.46Z"/><g class="cls-4"><path class="cls-7" d="M213,176.41l40.58-21.56L213,133.3V104.56l66.77,38.23v24L213,205Z"/></g><path class="cls-8" d="M223,176.41l40.58-21.56L223,133.3V104.56l66.77,38.23v24L223,205Z"/><text class="cls-9" transform="translate(102.5 218.73) scale(0.77 1)">J</text><text class="cls-10" transform="translate(96.78 223.71) scale(0.77 1)">J</text><text class="cls-10" transform="translate(107.78 223.71) scale(0.77 1)">J</text></svg>