<svg id="Layer_1" data-name="Layer 1" xmlns="http://www.w3.org/2000/svg" xmlns:xlink="http://www.w3.org/1999/xlink" viewBox="0 0 300 300"><defs><style>.cls-1{opacity:0.2;}.cls-2{fill:url(#linear-gradient);}.cls-3{fill:url(#linear-gradient-2);}.cls-4{opacity:0.65;}.cls-5{fill:url(#linear-gradient-3);}.cls-6{fill:url(#linear-gradient-4);}.cls-7{fill:url(#linear-gradient-5);}.cls-8{fill:url(#linear-gradient-6);}.cls-9{fill:#fff;}.cls-10{opacity:0.5;}</style><linearGradient id="linear-gradient" x1="27.4" y1="154.82" x2="94.17" y2="154.82" gradientUnits="userSpaceOnUse"><stop offset="0" stop-color="#0300aa"/><stop offset="1" stop-color="#d300ff"/></linearGradient><linearGradient id="linear-gradient-2" x1="205.11" y1="154.82" x2="271.87" y2="154.82" xlink:href="#linear-gradient"/><linearGradient id="linear-gradient-3" x1="20.41" y1="154.58" x2="87.18" y2="154.58" xlink:href="#linear-gradient"/><linearGradient id="linear-gradient-4" x1="10.83" y1="154.81" x2="77.6" y2="154.81" xlink:href="#linear-gradient"/><linearGradient id="linear-gradient-5" x1="212.97" y1="154.77" x2="279.74" y2="154.77" xlink:href="#linear-gradient"/><linearGradient id="linear-gradient-6" x1="222.97" y1="154.77" x2="289.74" y2="154.77" xlink:href="#linear-gradient"/></defs><rect width="300" height="300" rx="95.12"/><g class="cls-1"><path class="cls-2" d="M94.17,205,27.4,166.87v-24l66.77-38.24v28.74L53.59,154.91l40.58,21.56Z" transform="translate(0)"/><path class="cls-3" d="M205.11,176.47l40.57-21.56-40.57-21.56V104.61l66.76,38.24v24L205.11,205Z" transform="translate(0)"/></g><g class="cls-4"><path class="cls-5" d="M87.18,204.79,20.41,166.62v-24l66.77-38.23v28.74L46.6,154.66l40.58,21.56Z" transform="translate(0)"/></g><path class="cls-6" d="M77.6,205,10.83,166.86v-24L77.6,104.6v28.74L37,154.89,77.6,176.46Z" transform="translate(0)"/><g class="cls-4"><path class="cls-7" d="M213,176.41l40.58-21.56L213,133.3V104.56l66.77,38.23v24L213,205Z" transform="translate(0)"/></g><path class="cls-8" d="M223,176.41l40.58-21.56L223,133.3V104.56l66.77,38.23v24L223,205Z" transform="translate(0)"/><path class="cls-9" d="M158.92,76.6h33.7v77.22q0,24.32-3.31,37A42.39,42.39,0,0,1,176,212.34q-10,8.81-25.58,8.81-16.47,0-25.53-5.81t-14-17q-4.94-11.19-5.82-27.68l32.14-5.72q.07,9.41,1.26,14a15.73,15.73,0,0,0,4,7.37,7.64,7.64,0,0,0,5.49,1.84q5.64,0,8.28-5.47t2.64-18.45Z" transform="translate(0)"/><g class="cls-10"><path class="cls-9" d="M153.2,81.58h33.7V158.8q0,24.31-3.3,37a42.48,42.48,0,0,1-13.29,21.51q-10,8.81-25.57,8.81-16.49,0-25.54-5.82t-14-17q-5-11.2-5.83-27.68l32.14-5.72q.07,9.4,1.26,14a15.81,15.81,0,0,0,4,7.37,7.65,7.65,0,0,0,5.5,1.84q5.64,0,8.27-5.47t2.64-18.45Z" transform="translate(0)"/></g><g class="cls-10"><path class="cls-9" d="M164.2,81.58h33.7V158.8q0,24.31-3.3,37a42.48,42.48,0,0,1-13.29,21.51q-10,8.81-25.57,8.81-16.49,0-25.54-5.82t-14-17q-5-11.2-5.83-27.68l32.14-5.72q.07,9.4,1.26,14a15.81,15.81,0,0,0,4,7.37,7.65,7.65,0,0,0,5.5,1.84q5.64,0,8.27-5.47t2.64-18.45Z" transform="translate(0)"/></g></svg>