<svg id="Layer_1" data-name="Layer 1" xmlns="http://www.w3.org/2000/svg" viewBox="0 0 330 200"><defs><style>.cls-1{fill:#fac036;}.cls-2,.cls-3{fill:#fff;stroke:#fbb03b;stroke-miterlimit:10;}.cls-2{stroke-width:4px;}.cls-3{stroke-width:3px;}.cls-4{fill:#fabf35;}.cls-5{fill:#e48d16;}.cls-6{fill:#f9bf35;}.cls-7{fill:#e48e16;}</style></defs><rect class="cls-1" width="330" height="200"/><circle class="cls-2" cx="271" cy="100" r="40"/><circle class="cls-3" cx="165" cy="100" r="40"/><circle class="cls-2" cx="62.7" cy="99.75" r="40"/><path class="cls-4" d="M167.75,74.43c1.68,2,1.41,4.67,1.43,7.09l0,1.24c0,1.08,0,2.17,0,3.25,0,1.74.05,3.48.08,5.22,0,.61,0,1.22,0,1.82,0,.37,0,.74,0,1.11v.52a1.83,1.83,0,0,0,.48,1.62h.61c.3-1.39.54-2.78.74-4.18l.18-1.22c.09-.62.19-1.25.28-1.87.31-2.13.63-4.25,1-6.36l.09-.47A6.13,6.13,0,0,1,175,78.46a3.37,3.37,0,0,1,2.3,0,3.68,3.68,0,0,1,1.59,2,32,32,0,0,1-.39,6.33l-.12.9c-.1.8-.21,1.59-.32,2.38l-.57,4.23-.06.45c-.24,1.77-.47,3.53-.64,5.31l-.05.45c-.45,4-.45,4,.72,7.63a1.9,1.9,0,0,0,1.23.21,3.42,3.42,0,0,0,1.05-.77l.59-.51,1.26-1.17.33-.31.9-.86a4.59,4.59,0,0,1,3.52-1.18h.47a6.19,6.19,0,0,1,3.78,1.13,2.41,2.41,0,0,1,.48,1.82,5.59,5.59,0,0,1-2.54,3.07c-.76.45-1.54.87-2.31,1.29a20,20,0,0,0-6.38,5.44c-.75.92-1.57,1.78-2.39,2.64-.54.57-1.07,1.14-1.57,1.75-2.1,2.48-6.19,3.49-9.29,3.84a25.37,25.37,0,0,1-9-.82l-.62-.18c-2.71-1-4.47-3.15-5.72-5.67a28.94,28.94,0,0,1-2.45-10.57c-.21-2.56-.55-5.1-.93-7.64-.06-.45-.13-.89-.19-1.33-.27-1.83-.54-3.65-.83-5.47l-.11-.74-.21-1.24c-.58-3.55-.58-3.55.14-4.91a2.44,2.44,0,0,1,1.76-1.09,3.11,3.11,0,0,1,2,.32c1.72,1.77,2,5.1,2.43,7.43.11.55.23,1.09.34,1.64l.21,1,.1.49a8.82,8.82,0,0,1,.23,2.29,5.06,5.06,0,0,0,1.23,0,2.42,2.42,0,0,0,.37-2l0-.45c-.21-2.81-.54-5.61-.85-8.41-.09-.79-.17-1.57-.25-2.35L154,84.2c-.54-5-.54-5,.79-6.84a2.89,2.89,0,0,1,1.9-.54A3.39,3.39,0,0,1,159,78.25a13.43,13.43,0,0,1,.92,3.86l.08.58c.32,2.57.6,5.16.89,7.74,0,.51.11,1,.17,1.54.13,1.24.27,2.47.4,3.71l1.44.21v-.71q0-3.29,0-6.58c0-1.12,0-2.25,0-3.38s0-2.18,0-3.26c0-.42,0-.83,0-1.25V78.45a5.55,5.55,0,0,1,1-3.61A3.3,3.3,0,0,1,167.75,74.43Z"/><path class="cls-5" d="M176.41,102.86v1.64l-.71,0c-2.94.09-5.54.53-7.9,2.44a13.44,13.44,0,0,0-2,2.83l-.24.44c-.34.61-.67,1.23-1,1.85l-.26.49-.21.42a2.06,2.06,0,0,1-1.06.74,11.71,11.71,0,0,1,1.94-5.49l.23-.39A10.32,10.32,0,0,1,172,103,22.09,22.09,0,0,1,176.41,102.86Z"/><path class="cls-6" d="M67.32,77.5c1.39.79,1.76,2.06,2.25,3.5h1l.18-.4c.64-1.34,1.12-2.28,2.55-2.89a7.71,7.71,0,0,1,5.25.75A3.8,3.8,0,0,1,80,81.12a29.63,29.63,0,0,1-.18,6.1l-.1,1A34,34,0,0,1,79,93.1l.66.18a8.17,8.17,0,0,1,4.15,3.94,13.93,13.93,0,0,1,1.11,5l.06.74a20,20,0,0,1-5.36,13.92L78.46,118l-.52.53C74.43,122,69.42,123,64.68,123h-3.8c-4.54,0-9.12-.49-12.54-3.75-3.32-3.48-5.07-8.41-6.06-13l-.16-.74c-.51-2.48-.86-5-1.17-7.48-.1-.75-.19-1.5-.29-2.25-1-7.56-1-7.56.21-9.46a5.37,5.37,0,0,1,3.27-2.12,5,5,0,0,1,3,.69,2.21,2.21,0,0,1,.74,1.53l1-.49,0-.52a6.37,6.37,0,0,1,1.35-4.81,4.81,4.81,0,0,1,6.58-.1l.51.68.48.55a5.06,5.06,0,0,0,1.23,0l.11-.48a6.58,6.58,0,0,1,2.78-4.19A7.3,7.3,0,0,1,67.32,77.5Z"/><path class="cls-7" d="M67.32,77.5c1.39.79,1.76,2.06,2.25,3.5h1l.18-.4c.64-1.34,1.12-2.28,2.55-2.89a7.71,7.71,0,0,1,5.25.75A3.8,3.8,0,0,1,80,81.12a29.73,29.73,0,0,1-.18,6.11l-.1,1A25.9,25.9,0,0,1,79,92.85c-.91-.11-1.82-.22-2.72-.37A40.55,40.55,0,0,0,69.91,92L69,92a10.75,10.75,0,0,0-7.08,2.08,4.32,4.32,0,0,0-.5,3.21,2.41,2.41,0,0,0,1.5,1.64,7,7,0,0,0,3.1.37l1.24,0,1.91,0c4.7-.15,4.7-.15,6.57,1.28a4.35,4.35,0,0,1,1.3,3.73,4.52,4.52,0,0,1-1.79,3.32c-.74.36-.74.36-1.33.3l-.4-.19a4.52,4.52,0,0,1,.75-2.07,3.35,3.35,0,0,0,.48-2.62,3.16,3.16,0,0,0-2.22-1.48H69.38l-1.84,0-1.79,0-.55,0a6.59,6.59,0,0,1-4.77-1.81l-.13.65a5.4,5.4,0,0,1-2.7,2.65,6.71,6.71,0,0,1-4.57-.58,12.53,12.53,0,0,1-2-1.73l-.29.66a5.56,5.56,0,0,1-2.25,2.38A6.48,6.48,0,0,1,43.4,103,5.89,5.89,0,0,1,41,98.66c-.1-.79-.19-1.59-.27-2.39,0-.39-.1-.79-.16-1.19-.84-6.85-.84-6.85.34-8.75a5.37,5.37,0,0,1,3.27-2.12,5,5,0,0,1,3,.69,2.21,2.21,0,0,1,.74,1.53l1-.49,0-.52a6.37,6.37,0,0,1,1.35-4.81,4.81,4.81,0,0,1,6.58-.1l.51.68.48.55a5.06,5.06,0,0,0,1.23,0l.11-.48a6.58,6.58,0,0,1,2.78-4.19A7.3,7.3,0,0,1,67.32,77.5Z"/><path class="cls-6" d="M56.07,80c1.55,1.3,1.87,2.4,2.16,4.35l.12.77c.33,2.2.57,4.41.79,6.62l.09,1c.55,6,.55,6-1.28,8.23a5.54,5.54,0,0,1-3.44.35,6.62,6.62,0,0,1-3-3,20.43,20.43,0,0,1-.77-3l-.19-.85q-.77-3.61-1.42-7.26c-.06-.33-.14-.67-.22-1a6.53,6.53,0,0,1,.56-4.67,5,5,0,0,1,2.61-2.06A5.69,5.69,0,0,1,56.07,80Z"/><path class="cls-6" d="M47.07,84.84c1.38,1.58,1.56,3.89,1.92,5.88l.16.87c1.36,7.49,1.36,7.49.28,9.33a4.15,4.15,0,0,1-2.87,1.34,4.77,4.77,0,0,1-3.41-1.51A17.59,17.59,0,0,1,41.4,95.9c-.13-.49-.25-1-.38-1.49l-.17-.7a10.73,10.73,0,0,0-.45-1.42,8.3,8.3,0,0,1,.19-5.52,6.28,6.28,0,0,1,2.76-2.41A5.22,5.22,0,0,1,47.07,84.84Z"/><path class="cls-6" d="M67.32,77.5a3.47,3.47,0,0,1,1.78,2.41,12,12,0,0,1,.22,3.33l0,.63c0,.65,0,1.3-.07,1.94,0,.45,0,.89,0,1.33l-.12,3.24-.64,0c-2.61.17-5.15.52-7.25,2.18l-.75.5c-.13-1.25-.27-2.49-.4-3.73-.05-.42-.1-.84-.14-1.26-.88-8-.88-8,0-9.33C62.07,76.51,64.48,76.2,67.32,77.5Z"/><path class="cls-6" d="M78.54,78.46A3.8,3.8,0,0,1,80,81.12a27.87,27.87,0,0,1-.14,5.7c-.06.5-.11,1-.16,1.5a12,12,0,0,1-.54,3.3l-.45-.09a55.29,55.29,0,0,0-8.19-1.15c0-2.49,0-5,.07-7.48l0-.66A5.87,5.87,0,0,1,72,78.47C73.81,77,76.6,77.34,78.54,78.46Z"/><path class="cls-6" d="M286.8,75.08c1.21,1.21,1.27,2.52,1.17,4.06-.11.87-.28,1.74-.45,2.6l-.15.78c-.84,4.19-2,8.33-3.07,12.47-.19.73-.39,1.47-.58,2.21-.14.52-.28,1-.43,1.56-.08.32-.16.63-.25.95l-.12.44a3.18,3.18,0,0,0,0,2.11,2.8,2.8,0,0,0,.84.56,6.76,6.76,0,0,1,3.43,4.35c.48,3.22.44,7.29-1.74,10a23.07,23.07,0,0,1-2.07,2l-.37.34c-3.51,2.91-9.1,3.53-13.74,3.44a15.37,15.37,0,0,1-9.27-3l-.73-.75-.4-.43c-2.38-2.9-3.13-6.83-4.15-10.23a23.61,23.61,0,0,0-1.47-3.9,3,3,0,0,1,2.09-4.09,3.77,3.77,0,0,1,2.78.51l1.15.6-.2-.4a6,6,0,0,1-.57-4.63A3.13,3.13,0,0,1,260,95.3a5.2,5.2,0,0,1,3.44.07l.63.31c.31.08.61.15.92.2l-.19-.45q-1.87-4.52-3.65-9.07c-.12-.31-.24-.62-.35-.92-2.46-6.28-2.46-6.28-1.41-8.38a2.92,2.92,0,0,1,1.93-1.31,5,5,0,0,1,3.46.3,6.67,6.67,0,0,1,2.53,3.7l.26.66.81,2.08c.35.9.7,1.81,1.06,2.71l.26.68c.63,1.59,1.25,3.18,1.9,4.76l.24.62A8.74,8.74,0,0,0,274,94.69l1.61-.2A30.19,30.19,0,0,0,277.35,89c.07-.31.15-.62.23-.93.43-1.69.84-3.39,1.24-5.08l.24-1c.16-.66.31-1.31.46-2,1-4.11,1-4.11,2.71-5.28A5.53,5.53,0,0,1,286.8,75.08Z"/><path class="cls-5" d="M263.45,95.37l.63.31a4.61,4.61,0,0,0,1.38.2l.92,1.57.26.46.26.43.23.4a1.07,1.07,0,0,1,.17.73l.39-.17c4.52-1.74,9.8-.21,14.21,1.13l.56.24a1.52,1.52,0,0,1,0,1.39l-1-.25-.63-.16-1.41-.38c-5.25-1.48-5.25-1.48-10.54-.65a3.76,3.76,0,0,0-1.61,1.44,3.87,3.87,0,0,0,.23,2.2,6.85,6.85,0,0,0,1.38.4l.53.14a22.76,22.76,0,0,0,3.69.63c2.74.29,5,1,6.78,2.88a3.81,3.81,0,0,1,.25,2.33,2.75,2.75,0,0,1-1.38,1.39h-.92l.08-.62.09-.81.06-.41a2.11,2.11,0,0,0-.4-1.72c-1.93-1.6-4.65-1.68-7.18-1.82l-.11.49c-.54,2.17-.54,2.17-1.72,2.9a5.08,5.08,0,0,1-3,.4,13.11,13.11,0,0,1-1.84-.8l-.28.75a3.43,3.43,0,0,1-1.73,1.85,6.94,6.94,0,0,1-3.27.19,6.4,6.4,0,0,1-3-2.19v-.6h-.46l-.12-.32-.53-1.47-.18-.51c-.29-.8-.59-1.59-.94-2.37a3.32,3.32,0,0,1,0-2.84,3,3,0,0,1,2-1.57,3.77,3.77,0,0,1,2.78.51l1.15.6-.2-.4a6,6,0,0,1-.57-4.63A3.13,3.13,0,0,1,260,95.3,5.2,5.2,0,0,1,263.45,95.37Z"/><path class="cls-6" d="M263.44,95.29c1.64,1,2.43,2.94,2.94,4.58a5.4,5.4,0,0,1-.47,1.56,3.23,3.23,0,0,0,.21,3.06,6,6,0,0,0,3,1.76,2.94,2.94,0,0,1-.39,2.06,3.25,3.25,0,0,1-2.47,1,4.8,4.8,0,0,1-3.2-1.79,21.81,21.81,0,0,1-1.72-2.79c-.59-1.06-1.23-2.1-1.88-3.14-1-1.62-1.61-3.11-1-5A3.13,3.13,0,0,1,260,95.3,6.07,6.07,0,0,1,263.44,95.29Z"/><path class="cls-6" d="M258.08,101.05a7.65,7.65,0,0,1,2,2.7l.33.59c2.23,4,2.23,4,2.07,5.9a3.45,3.45,0,0,1-1.84,1.19,4,4,0,0,1-3.22-.79,11.72,11.72,0,0,1-2.75-3.59v-.4h-.46l-.45-.75-.25-.42a3.87,3.87,0,0,1-.18-3.35,3.57,3.57,0,0,1,2-1.62A4.26,4.26,0,0,1,258.08,101.05Z"/></svg>